<svg width="414" height="431" viewBox="0 0 414 431" fill="none" xmlns="http://www.w3.org/2000/svg">
<circle cx="207" cy="238" r="191" stroke="black" stroke-width="4"/>
<path d="M4.35006 355L207 4.00001L409.65 355H4.35006Z" stroke="black" stroke-width="4"/>
<circle cx="207" cy="238" r="108" stroke="black" stroke-width="4"/>
<path d="M333.422 330H328.676V290.555L333.422 289.359V313.336C333.422 313.5 333.422 313.734 333.422 314.039C333.422 314.32 333.41 314.625 333.387 314.953C333.387 315.258 333.375 315.551 333.352 315.832C333.352 316.113 333.352 316.324 333.352 316.465C333.984 315.738 334.664 314.977 335.391 314.18C336.141 313.359 336.867 312.562 337.57 311.789C338.297 311.016 338.977 310.301 339.609 309.645C340.266 308.965 340.828 308.402 341.297 307.957C342.07 307.23 342.797 306.668 343.477 306.27C344.18 305.871 345.07 305.672 346.148 305.672C346.5 305.672 346.898 305.695 347.344 305.742C347.812 305.789 348.152 305.871 348.363 305.988V307.465H348.223C347.707 307.465 347.227 307.523 346.781 307.641C346.359 307.734 345.938 307.887 345.516 308.098C345.117 308.309 344.707 308.578 344.285 308.906C343.863 309.234 343.406 309.621 342.914 310.066C342.68 310.277 342.328 310.617 341.859 311.086C341.391 311.555 340.922 312.035 340.453 312.527C339.891 313.113 339.293 313.723 338.66 314.355C339.059 314.988 339.504 315.773 339.996 316.711C340.488 317.625 341.016 318.598 341.578 319.629C342.164 320.66 342.773 321.68 343.406 322.688C344.062 323.695 344.742 324.609 345.445 325.43C346.172 326.25 346.91 326.918 347.66 327.434C348.434 327.926 349.23 328.172 350.051 328.172H350.402V329.754C349.887 329.941 349.277 330.094 348.574 330.211C347.871 330.328 347.191 330.387 346.535 330.387C345.27 330.387 344.156 330.012 343.195 329.262C342.234 328.488 341.332 327.492 340.488 326.273C339.645 325.055 338.824 323.684 338.027 322.16C337.23 320.613 336.363 319.078 335.426 317.555L333.422 319.559V330Z" fill="black"/>
<path d="M71.7344 306.023C71.7344 306.352 71.7227 306.809 71.6992 307.395C71.6758 307.98 71.6641 308.438 71.6641 308.766C72.2031 308.461 72.8242 308.121 73.5273 307.746C74.2539 307.348 75.0273 306.984 75.8477 306.656C76.6914 306.305 77.5586 306.012 78.4492 305.777C79.3633 305.543 80.2773 305.426 81.1914 305.426C82.2227 305.426 83.1602 305.578 84.0039 305.883C84.8711 306.164 85.6094 306.609 86.2188 307.219C86.8516 307.805 87.3438 308.543 87.6953 309.434C88.0469 310.324 88.2227 311.367 88.2227 312.562V330H83.4766V313.301C83.4766 312.738 83.4297 312.188 83.3359 311.648C83.2422 311.086 83.043 310.582 82.7383 310.137C82.457 309.691 82.0469 309.328 81.5078 309.047C80.9688 308.766 80.2422 308.625 79.3281 308.625C78.7656 308.625 78.1445 308.695 77.4648 308.836C76.8086 308.977 76.1406 309.152 75.4609 309.363C74.7812 309.574 74.1133 309.82 73.457 310.102C72.8242 310.383 72.25 310.664 71.7344 310.945V330H66.9883V290.555L71.7344 289.359V306.023Z" fill="black"/>
<path d="M198.359 107.223C198.523 107.223 198.957 107.234 199.66 107.258C200.387 107.258 201.254 107.27 202.262 107.293C203.27 107.293 204.348 107.305 205.496 107.328C206.645 107.328 207.734 107.328 208.766 107.328C209.797 107.328 210.688 107.328 211.438 107.328C212.188 107.328 212.668 107.328 212.879 107.328C214.73 107.328 216.242 107.199 217.414 106.941C218.609 106.66 219.57 106.32 220.297 105.922C221.023 105.523 221.586 105.102 221.984 104.656C222.383 104.211 222.746 103.801 223.074 103.426L224.129 104.199C223.848 104.691 223.461 105.289 222.969 105.992C222.5 106.695 221.891 107.375 221.141 108.031C220.414 108.664 219.523 109.215 218.469 109.684C217.438 110.129 216.219 110.352 214.812 110.352C214.109 110.352 213.113 110.34 211.824 110.316C210.535 110.316 209.105 110.293 207.535 110.246C205.988 110.223 204.383 110.199 202.719 110.176C201.078 110.152 199.543 110.117 198.113 110.07C196.707 110.047 195.5 110.023 194.492 110C193.508 110 192.887 110 192.629 110V107.539L213.828 76.7773H213.547C212.773 76.7773 211.824 76.7773 210.699 76.7773C209.574 76.7539 208.367 76.7305 207.078 76.707C205.789 76.6836 204.465 76.6602 203.105 76.6367C201.77 76.6133 200.492 76.5898 199.273 76.5664C198.078 76.5195 197 76.4844 196.039 76.4609C195.078 76.4375 194.34 76.4023 193.824 76.3555L194.141 74H219.594V76.25L198.359 107.223Z" fill="black"/>
</svg>
